# Blender v2.92.0 OBJ File: ''
# www.blender.org
o Circle
v -0.999429 0.000000 0.000000
v -0.980226 -0.194979 0.000000
v -0.923352 -0.382465 0.000000
v -0.830995 -0.555253 0.000000
v -0.706703 -0.706703 0.000000
v -0.555253 -0.830995 0.000000
v -0.382465 -0.923352 0.000000
v -0.194979 -0.980226 0.000000
v -0.000000 -0.999429 0.000000
v 0.194979 -0.980226 0.000000
v 0.382465 -0.923352 0.000000
v 0.555253 -0.830995 0.000000
v 0.706703 -0.706703 0.000000
v 0.830995 -0.555253 0.000000
v 0.923352 -0.382465 0.000000
v 0.923352 0.382465 0.000000
v 0.830995 0.555254 0.000000
v 0.706703 0.706704 0.000000
v 0.555253 0.830995 0.000000
v 0.382464 0.923353 0.000000
v 0.194978 0.980226 0.000000
v -0.000001 0.999429 0.000000
v -0.194980 0.980225 0.000000
v -0.382466 0.923352 0.000000
v -0.555254 0.830994 0.000000
v -0.706704 0.706702 0.000000
v -0.830996 0.555252 0.000000
v -0.923353 0.382464 0.000000
v -0.980226 0.194977 0.000000
v -0.762151 0.000000 0.000000
v -0.747506 -0.148688 0.000000
v -0.704136 -0.291663 0.000000
v -0.633705 -0.423428 0.000000
v -0.538922 -0.538922 0.000000
v -0.423428 -0.633705 0.000000
v -0.291663 -0.704136 0.000000
v -0.148688 -0.747506 0.000000
v -0.000000 -0.762151 0.000000
v 0.148688 -0.747506 0.000000
v 0.291662 -0.704136 0.000000
v 0.423428 -0.633705 0.000000
v 0.538922 -0.538922 0.000000
v 0.633705 -0.423428 0.000000
v 0.704136 -0.291662 0.000000
v 0.704135 0.291663 0.000000
v 0.633705 0.423429 0.000000
v 0.538922 0.538922 0.000000
v 0.423428 0.633706 0.000000
v 0.291662 0.704136 0.000000
v 0.148688 0.747507 0.000000
v -0.000001 0.762151 0.000000
v -0.148689 0.747506 0.000000
v -0.291663 0.704135 0.000000
v -0.423429 0.633705 0.000000
v -0.538923 0.538921 0.000000
v -0.633706 0.423427 0.000000
v -0.704136 0.291662 0.000000
v -0.747507 0.148687 0.000000
s off
f 43 44 15
f 9 37 38
f 28 57 58
f 19 48 49
f 12 40 41
f 12 41 42
f 14 13 43
f 13 12 42
f 43 13 42
f 15 14 43
f 4 34 5
f 34 35 5
f 35 36 6
f 6 5 35
f 8 7 37
f 7 6 36
f 37 7 36
f 10 9 38
f 9 8 37
f 12 11 40
f 11 10 39
f 39 40 11
f 38 39 10
f 24 53 54
f 24 54 25
f 54 55 25
f 26 25 55
f 28 27 57
f 27 26 56
f 57 27 56
f 1 29 30
f 29 28 58
f 30 29 58
f 3 2 31
f 2 1 31
f 34 4 33
f 4 3 33
f 31 1 30
f 55 56 26
f 32 33 3
f 31 32 3
f 45 46 16
f 46 47 17
f 17 16 46
f 19 18 48
f 18 17 47
f 48 18 47
f 21 20 50
f 20 19 49
f 50 20 49
f 23 22 52
f 22 21 51
f 52 22 51
f 53 24 52
f 24 23 52
f 51 21 50
