v 0.048745 0.043741 0.006091 1.0000 0.9647 0.9921
v -0.000183 -0.005187 0.006091 1.0000 0.9647 0.9921
v 0.097672 -0.005187 0.006091 1.0000 0.9647 0.9921
v 0.048745 -0.054115 0.006091 1.0000 0.9647 0.9921
v 0.058290 -0.053174 0.006091 1.0000 0.9647 0.9921
v 0.083342 -0.039784 0.006091 1.0000 0.9647 0.9921
v 0.067468 -0.050390 0.006091 1.0000 0.9647 0.9921
v 0.075927 -0.045869 0.006091 1.0000 0.9647 0.9921
v 0.089426 -0.032370 0.006091 1.0000 0.9647 0.9921
v 0.093948 -0.023911 0.006091 1.0000 0.9647 0.9921
v 0.096732 -0.014732 0.006091 1.0000 0.9647 0.9921
v 0.096732 0.004358 0.006091 1.0000 0.9647 0.9921
v 0.093948 0.013537 0.006091 1.0000 0.9647 0.9921
v 0.089426 0.021996 0.006091 1.0000 0.9647 0.9921
v 0.083342 0.029410 0.006091 1.0000 0.9647 0.9921
v 0.075927 0.035495 0.006091 1.0000 0.9647 0.9921
v 0.067468 0.040016 0.006091 1.0000 0.9647 0.9921
v 0.058290 0.042801 0.006091 1.0000 0.9647 0.9921
v 0.039199 0.042801 0.006091 1.0000 0.9647 0.9921
v 0.030021 0.040016 0.006091 1.0000 0.9647 0.9921
v 0.021562 0.035495 0.006091 1.0000 0.9647 0.9921
v 0.014147 0.029410 0.006091 1.0000 0.9647 0.9921
v 0.008063 0.021996 0.006091 1.0000 0.9647 0.9921
v 0.003541 0.013537 0.006091 1.0000 0.9647 0.9921
v 0.000757 0.004358 0.006091 1.0000 0.9647 0.9921
v 0.000757 -0.014732 0.006091 1.0000 0.9647 0.9921
v 0.003541 -0.023911 0.006091 1.0000 0.9647 0.9921
v 0.008063 -0.032370 0.006091 1.0000 0.9647 0.9921
v 0.014148 -0.039784 0.006091 1.0000 0.9647 0.9921
v 0.021562 -0.045869 0.006091 1.0000 0.9647 0.9921
v 0.030021 -0.050390 0.006091 1.0000 0.9647 0.9921
v 0.039199 -0.053175 0.006091 1.0000 0.9647 0.9921
v -0.608206 0.069943 0.001925 1.0000 0.9098 0.0667
v -0.350532 -0.074432 0.001925 1.0000 0.9921 0.1294
v -0.606847 -0.219559 0.001925 1.0000 0.9098 0.0000
v -0.110197 0.118068 0.000000 1.0000 0.6197 0.5491
v -0.176343 -0.263233 -0.000000 1.0000 0.6197 0.5491
v -0.110197 -0.266932 -0.000000 1.0000 0.6197 0.5491
v -0.044050 -0.263233 -0.000000 1.0000 0.6197 0.5491
v -0.044051 0.114369 0.000000 1.0000 0.6197 0.5491
v 0.019554 -0.252279 -0.000000 1.0000 0.6197 0.5491
v 0.078172 -0.234490 -0.000000 1.0000 0.6197 0.5491
v 0.078172 0.085626 0.000000 1.0000 0.6197 0.5491
v 0.129551 -0.210550 -0.000000 1.0000 0.6197 0.5491
v 0.171717 -0.181380 -0.000000 1.0000 0.6197 0.5491
v 0.171717 0.032516 0.000000 1.0000 0.6197 0.5491
v 0.203049 -0.148099 -0.000000 1.0000 0.6197 0.5491
v 0.222343 -0.111986 -0.000000 1.0000 0.6197 0.5491
v 0.203049 -0.000765 0.000000 1.0000 0.6197 0.5491
v 0.228858 -0.074432 -0.000000 1.0000 0.6197 0.5491
v 0.222343 -0.036878 0.000000 1.0000 0.6863 0.6276
v 0.129551 0.061686 0.000000 1.0000 0.6197 0.5491
v 0.019554 0.103415 0.000000 1.0000 0.6197 0.5491
v -0.176344 0.114369 0.000000 1.0000 0.6197 0.5491
v -0.239948 0.103415 0.000000 1.0000 0.6197 0.5491
v -0.298566 0.085626 0.000000 1.0000 0.6197 0.5491
v -0.298565 -0.234490 -0.000000 1.0000 0.6197 0.5491
v -0.349945 0.061686 0.000000 1.0000 0.6197 0.5491
v -0.392112 0.032516 0.000000 1.0000 0.6197 0.5491
v -0.392111 -0.181380 -0.000000 1.0000 0.6197 0.5491
v -0.423443 -0.000765 0.000000 1.0000 0.6197 0.5491
v -0.442738 -0.036878 0.000000 1.0000 0.6197 0.5491
v -0.442737 -0.111987 -0.000000 1.0000 0.6197 0.5491
v -0.449252 -0.074432 -0.000000 1.0000 0.6197 0.5491
v -0.423443 -0.148099 -0.000000 1.0000 0.6197 0.5491
v -0.349945 -0.210550 -0.000000 1.0000 0.6197 0.5491
v -0.239947 -0.252279 -0.000000 1.0000 0.6197 0.5491
v -0.194622 0.200205 0.001925 1.0000 0.2941 0.4745
v 0.063051 0.055830 0.001925 1.0000 0.2941 0.4745
v -0.193264 -0.089297 0.001925 1.0000 0.2941 0.4745
#### ADDITIONAL TRIANGLES 1g
v -0.194622 -0.061361 0.001925 1.0000 0.2941 0.4745
v 0.063051 -0.205736 0.001925 1.0000 0.2941 0.4745
v -0.193264 -0.350863 0.001925 1.0000 0.2941 0.4745
v -0.649889 0.020643 0.001925 1.0000 0.2941 0.4745
v -0.346972 -0.077074 0.001925 1.0000 0.2941 0.4745
v -0.651359 -0.164232 0.001925 1.0000 0.2941 0.4745
vn -0.0000 -0.0000 -1.0000
vn -0.0000 -0.0000 1.0000
s 0
f 71//1 72//1 73//1
f 74//1 75//1 76//1
f 68//1 69//1 70//1
f 33//1 34//1 35//1
f 36//2 37//2 38//2
f 38//2 39//2 40//2
f 41//2 42//2 43//2
f 44//2 45//2 46//2
f 47//2 48//2 49//2
f 50//2 51//2 48//2
f 49//2 46//2 45//2
f 52//2 43//2 42//2
f 53//2 40//2 39//2
f 36//2 54//2 37//2
f 55//2 56//2 57//2
f 58//2 59//2 60//2
f 61//2 62//2 63//2
f 64//2 63//2 62//2
f 65//2 60//2 59//2
f 66//2 57//2 56//2
f 67//2 37//2 54//2
f 39//2 41//2 53//2
f 45//2 47//2 49//2
f 51//2 49//2 48//2
f 43//2 53//2 41//2
f 54//2 55//2 67//2
f 59//2 61//2 65//2
f 63//2 65//2 61//2
f 57//2 67//2 55//2
f 42//2 44//2 52//2
f 46//2 52//2 44//2
f 56//2 58//2 66//2
f 60//2 66//2 58//2
f 38//2 40//2 36//2
f 1//2 2//2 3//2
f 4//2 5//2 6//2
f 7//2 8//2 6//2
f 6//2 9//2 10//2
f 10//2 11//2 6//2
f 3//2 12//2 13//2
f 13//2 14//2 15//2
f 15//2 16//2 17//2
f 17//2 18//2 15//2
f 1//2 19//2 20//2
f 20//2 21//2 22//2
f 22//2 23//2 24//2
f 24//2 25//2 22//2
f 2//2 26//2 27//2
f 27//2 28//2 29//2
f 29//2 30//2 31//2
f 31//2 32//2 29//2
f 5//2 7//2 6//2
f 6//2 11//2 3//2
f 3//2 13//2 1//2
f 15//2 18//2 1//2
f 1//2 20//2 2//2
f 22//2 25//2 2//2
f 2//2 27//2 29//2
f 29//2 32//2 4//2
f 4//2 6//2 3//2
f 13//2 15//2 1//2
f 20//2 22//2 2//2
f 2//2 29//2 4//2
f 4//2 3//2 2//2

